<svg xmlns="http://www.w3.org/2000/svg" viewBox="0 0 400 300" role="presentation"><defs><pattern id="ht" width="11" height="11" patternUnits="userSpaceOnUse" patternTransform="rotate(28)"><circle cx="5.5" cy="5.5" r="2.6" fill="#1D2330"/></pattern><filter id="rough" x="-5%" y="-5%" width="110%" height="110%"><feTurbulence type="fractalNoise" baseFrequency=".035" numOctaves="2" seed="4"/><feDisplacementMap in="SourceGraphic" scale="7"/></filter></defs><rect width="400" height="300" rx="22" fill="#F5EDE1"/><path d="M70 330 V144.0 A110.0 110.0 0 0 1 290 144.0 V330 Z" fill="#E08A63" fill-opacity=".45" filter="url(#rough)" style="mix-blend-mode:multiply"/><circle cx="70" cy="60" r="30" fill="#A8462A" fill-opacity=".85" filter="url(#rough)" style="mix-blend-mode:multiply"/><ellipse cx="190" cy="254" rx="150" ry="10" fill="url(#ht)" opacity=".7" style="mix-blend-mode:multiply"/><g transform="translate(50 70) rotate(-9)"><rect width="200" height="104" rx="10" fill="#FBF7F0" stroke="#1D2330" stroke-width="5" stroke-linejoin="round" stroke-linecap="round"/><rect width="52" height="104" rx="10" fill="#24418F" fill-opacity=".85"/><line x1="52" y1="10" x2="52" y2="94" stroke="#1D2330" stroke-width="3" stroke-dasharray="2 8" stroke-linecap="round"/><rect x="70" y="26" width="100" height="10" rx="5" fill="#1D2330"/><rect x="70" y="48" width="70" height="8" rx="4" fill="#1D2330" opacity=".45"/><rect x="70" y="68" width="84" height="16" rx="8" fill="#E08A63"/></g><g transform="translate(130 130) rotate(7)"><rect width="200" height="104" rx="10" fill="#FBF7F0" stroke="#1D2330" stroke-width="5" stroke-linejoin="round" stroke-linecap="round"/><rect width="52" height="104" rx="10" fill="#A8462A" fill-opacity=".85"/><line x1="52" y1="10" x2="52" y2="94" stroke="#1D2330" stroke-width="3" stroke-dasharray="2 8" stroke-linecap="round"/><rect x="70" y="26" width="100" height="10" rx="5" fill="#1D2330"/><rect x="70" y="48" width="70" height="8" rx="4" fill="#1D2330" opacity=".45"/><rect x="70" y="68" width="84" height="16" rx="8" fill="#E08A63"/></g><path d="M272 70 q30 -20 46 10" fill="none" stroke="#1D2330" stroke-width="4" stroke-linecap="round"/><path d="M302 68 l18 12 l-4 -20" fill="none" stroke="#1D2330" stroke-width="4" stroke-linejoin="round" stroke-linecap="round"/></svg>