<svg xmlns="http://www.w3.org/2000/svg" viewBox="0 0 400 300" role="presentation"><defs><pattern id="ht" width="11" height="11" patternUnits="userSpaceOnUse" patternTransform="rotate(28)"><circle cx="5.5" cy="5.5" r="2.6" fill="#1D2330"/></pattern><filter id="rough" x="-5%" y="-5%" width="110%" height="110%"><feTurbulence type="fractalNoise" baseFrequency=".035" numOctaves="2" seed="4"/><feDisplacementMap in="SourceGraphic" scale="7"/></filter></defs><rect width="400" height="300" rx="22" fill="#F5EDE1"/><path d="M70 330 V144.0 A110.0 110.0 0 0 1 290 144.0 V330 Z" fill="#E08A63" fill-opacity=".45" filter="url(#rough)" style="mix-blend-mode:multiply"/><circle cx="330" cy="230" r="30" fill="#A8462A" fill-opacity=".85" filter="url(#rough)" style="mix-blend-mode:multiply"/><ellipse cx="220" cy="266" rx="140" ry="10" fill="url(#ht)" opacity=".7" style="mix-blend-mode:multiply"/><g transform="rotate(-5 190 150)"><rect x="90" y="40" width="200" height="220" rx="8" fill="#FBF7F0" stroke="#1D2330" stroke-width="5" stroke-linejoin="round" stroke-linecap="round"/><line x1="120" y1="96" x2="266" y2="96" stroke="#E3D6C3" stroke-width="3"/><line x1="120" y1="126" x2="266" y2="126" stroke="#E3D6C3" stroke-width="3"/><line x1="120" y1="156" x2="266" y2="156" stroke="#E3D6C3" stroke-width="3"/><line x1="120" y1="186" x2="266" y2="186" stroke="#E3D6C3" stroke-width="3"/><line x1="120" y1="216" x2="266" y2="216" stroke="#E3D6C3" stroke-width="3"/><circle cx="90" cy="66" r="7" fill="#F5EDE1" stroke="#1D2330" stroke-width="3"/><circle cx="90" cy="100" r="7" fill="#F5EDE1" stroke="#1D2330" stroke-width="3"/><circle cx="90" cy="134" r="7" fill="#F5EDE1" stroke="#1D2330" stroke-width="3"/><circle cx="90" cy="168" r="7" fill="#F5EDE1" stroke="#1D2330" stroke-width="3"/><circle cx="90" cy="202" r="7" fill="#F5EDE1" stroke="#1D2330" stroke-width="3"/><circle cx="90" cy="236" r="7" fill="#F5EDE1" stroke="#1D2330" stroke-width="3"/><rect x="120" y="78" width="70" height="10" rx="5" fill="#A8462A"/><rect x="200" y="108" width="48" height="10" rx="5" fill="#1D2330" opacity=".6"/><rect x="120" y="138" width="96" height="10" rx="5" fill="#1D2330" opacity=".6"/></g><g transform="translate(304 80) rotate(28)"><rect width="18" height="170" rx="3" fill="#E08A63" stroke="#1D2330" stroke-width="5" stroke-linejoin="round" stroke-linecap="round"/><path d="M0 170 L9 196 L18 170 Z" fill="#FBF7F0" stroke="#1D2330" stroke-width="5" stroke-linejoin="round" stroke-linecap="round"/><rect width="18" height="20" fill="#1D2330"/></g><g transform="translate(60 60) rotate(10)"><rect x="-13" y="-13" width="26" height="26" fill="#24418F" style="mix-blend-mode:multiply"/><rect x="-13" y="-13" width="26" height="26" fill="#24418F" style="mix-blend-mode:multiply" transform="rotate(45)"/></g><g transform="translate(86 82) rotate(0)"><rect x="-7" y="-7" width="14" height="14" fill="#E08A63" style="mix-blend-mode:multiply"/><rect x="-7" y="-7" width="14" height="14" fill="#E08A63" style="mix-blend-mode:multiply" transform="rotate(45)"/></g></svg>